<svg width="40" height="40" viewBox="0 0 40 40" fill="none" xmlns="http://www.w3.org/2000/svg">
<path d="M20 37.5C15.3587 37.5 10.9075 35.6563 7.62563 32.3744C4.34374 29.0925 2.5 24.6413 2.5 20C2.5 15.3587 4.34374 10.9075 7.62563 7.62563C10.9075 4.34374 15.3587 2.5 20 2.5C24.6413 2.5 29.0925 4.34374 32.3744 7.62563C35.6563 10.9075 37.5 15.3587 37.5 20C37.5 24.6413 35.6563 29.0925 32.3744 32.3744C29.0925 35.6563 24.6413 37.5 20 37.5ZM20 40C25.3043 40 30.3914 37.8929 34.1421 34.1421C37.8929 30.3914 40 25.3043 40 20C40 14.6957 37.8929 9.60859 34.1421 5.85786C30.3914 2.10714 25.3043 0 20 0C14.6957 0 9.60859 2.10714 5.85786 5.85786C2.10714 9.60859 0 14.6957 0 20C0 25.3043 2.10714 30.3914 5.85786 34.1421C9.60859 37.8929 14.6957 40 20 40Z" fill="url(#paint0_linear_103_2212)"/>
<path d="M10.7129 23.9175C11 23.7517 11.3411 23.7068 11.6614 23.7926C11.9816 23.8784 12.2546 24.0879 12.4204 24.375C13.1881 25.7058 14.293 26.8109 15.6237 27.579C16.9544 28.347 18.4639 28.7509 20.0004 28.75C21.5368 28.7509 23.0463 28.347 24.377 27.579C25.7077 26.8109 26.8126 25.7058 27.5804 24.375C27.6618 24.2317 27.7709 24.1059 27.9011 24.0049C28.0314 23.9039 28.1804 23.8297 28.3395 23.7865C28.4986 23.7433 28.6646 23.732 28.8281 23.7532C28.9916 23.7745 29.1493 23.8279 29.292 23.9103C29.4348 23.9927 29.5598 24.1026 29.66 24.2335C29.7601 24.3645 29.8333 24.5139 29.8755 24.6733C29.9176 24.8327 29.9278 24.9988 29.9055 25.1622C29.8831 25.3255 29.8287 25.4828 29.7454 25.625C28.7582 27.3359 27.3377 28.7565 25.627 29.744C23.9163 30.7315 21.9756 31.2509 20.0004 31.25C18.0251 31.2509 16.0844 30.7315 14.3737 29.744C12.663 28.7565 11.2425 27.3359 10.2554 25.625C10.0896 25.3379 10.0447 24.9967 10.1305 24.6765C10.2163 24.3563 10.4258 24.0833 10.7129 23.9175ZM17.5004 16.25C17.5004 18.32 16.3804 20 15.0004 20C13.6204 20 12.5004 18.32 12.5004 16.25C12.5004 14.18 13.6204 12.5 15.0004 12.5C16.3804 12.5 17.5004 14.18 17.5004 16.25ZM27.5004 16.25C27.5004 18.32 26.3804 20 25.0004 20C23.6204 20 22.5004 18.32 22.5004 16.25C22.5004 14.18 23.6204 12.5 25.0004 12.5C26.3804 12.5 27.5004 14.18 27.5004 16.25Z" fill="url(#paint1_linear_103_2212)"/>
<defs>
<linearGradient id="paint0_linear_103_2212" x1="20" y1="0" x2="20" y2="40" gradientUnits="userSpaceOnUse">
<stop stop-color="#D15FC0"/>
<stop offset="1" stop-color="#8C9CFF"/>
</linearGradient>
<linearGradient id="paint1_linear_103_2212" x1="20.0024" y1="12.5" x2="20.0024" y2="31.25" gradientUnits="userSpaceOnUse">
<stop stop-color="#D15FC0"/>
<stop offset="1" stop-color="#8C9CFF"/>
</linearGradient>
</defs>
</svg>
