<svg width="29" height="30" viewBox="0 0 29 30" fill="none" xmlns="http://www.w3.org/2000/svg">
<path d="M1.32097 14.2334C0.735609 15.0069 0.411568 15.9546 0.411568 16.9407C0.411568 18.5052 1.28613 19.986 2.6938 20.8118C3.05619 21.0243 3.46879 21.1362 3.88892 21.1358L12.2443 21.1358L12.0353 25.418C11.9865 26.4529 12.3523 27.4355 13.0631 28.1846C13.412 28.5538 13.8328 28.8476 14.2997 29.0478C14.7665 29.248 15.2695 29.3503 15.7774 29.3484C17.5893 29.3484 19.1921 28.1289 19.6729 26.3832L22.6659 15.547H22.6764L22.6764 0.634077L6.21993 0.634077C5.89937 0.634077 5.58578 0.696796 5.29659 0.822231C3.63805 1.52955 2.56836 3.14976 2.56836 4.94767C2.56836 5.38669 2.63108 5.81875 2.75652 6.23686C2.17115 7.01038 1.84711 7.95812 1.84711 8.94418C1.84711 9.38321 1.90982 9.81526 2.03526 10.2334C1.44989 11.0069 1.12585 11.9546 1.12585 12.9407C1.13282 13.3797 1.19554 13.8153 1.32097 14.2334ZM28.2861 14.432V1.74906C28.2861 1.13234 27.7879 0.634077 27.1712 0.634077H24.9063L24.9063 15.547H27.1712C27.7879 15.547 28.2861 15.0487 28.2861 14.432Z" fill="white"/>
</svg>
