<svg width="40" height="42" viewBox="0 0 40 42" fill="none" xmlns="http://www.w3.org/2000/svg">
<path d="M38.695 21.69C39.535 20.58 40 19.22 40 17.805C40 15.56 38.745 13.435 36.725 12.25C36.205 11.945 35.6129 11.7845 35.01 11.785H23.02L23.32 5.64004C23.39 4.15504 22.865 2.74504 21.845 1.67004C21.3444 1.14018 20.7405 0.718602 20.0706 0.431363C19.4006 0.144124 18.6789 -0.00267507 17.95 3.69008e-05C15.35 3.69008e-05 13.05 1.75004 12.36 4.25504L8.065 19.805H8.05V41.205H31.665C32.125 41.205 32.575 41.115 32.99 40.935C35.37 39.92 36.905 37.595 36.905 35.015C36.905 34.385 36.815 33.765 36.635 33.165C37.475 32.055 37.94 30.695 37.94 29.28C37.94 28.65 37.85 28.03 37.67 27.43C38.51 26.32 38.975 24.96 38.975 23.545C38.965 22.915 38.875 22.29 38.695 21.69ZM0 21.405V39.605C0 40.49 0.715 41.205 1.6 41.205H4.85V19.805H1.6C0.715 19.805 0 20.52 0 21.405Z" fill="#3158D4"/>
</svg>
