<svg width="50" height="50" viewBox="0 0 50 50" fill="none" xmlns="http://www.w3.org/2000/svg">
<circle cx="25" cy="25" r="25" fill="url(#paint0_linear)"/>
<path d="M31.6232 29.6271C32.5899 29.1078 33.6964 28.8122 34.8749 28.8122H34.8788C34.9987 28.8122 35.0546 28.6684 34.9667 28.5885C33.7412 27.4887 32.3413 26.6004 30.8243 25.96C30.8083 25.952 30.7923 25.948 30.7763 25.94C33.257 24.1384 34.8709 21.2103 34.8709 17.9068C34.8709 12.4341 30.4448 8 24.9841 8C19.5234 8 15.1013 12.4341 15.1013 17.9068C15.1013 21.2103 16.7151 24.1384 19.1998 25.94C19.1838 25.948 19.1678 25.952 19.1519 25.96C17.3663 26.715 15.7644 27.7975 14.3862 29.1797C13.016 30.5474 11.9252 32.1688 11.1745 33.9533C10.436 35.7008 10.0374 37.5731 10.0001 39.4699C9.99903 39.5126 10.0065 39.555 10.0221 39.5947C10.0377 39.6344 10.061 39.6706 10.0908 39.7011C10.1206 39.7316 10.1562 39.7559 10.1955 39.7724C10.2348 39.789 10.277 39.7975 10.3197 39.7975H12.7125C12.8842 39.7975 13.0281 39.6577 13.032 39.4859C13.1119 36.402 14.3463 33.5139 16.5314 31.3248C18.7884 29.0599 21.7923 27.8135 24.9881 27.8135C27.253 27.8135 29.4261 28.4407 31.2996 29.6151C31.3478 29.6453 31.403 29.6624 31.4598 29.6645C31.5166 29.6666 31.573 29.6537 31.6232 29.6271ZM24.9881 24.7776C23.1585 24.7776 21.4368 24.0625 20.1385 22.7643C19.4998 22.1272 18.9934 21.37 18.6485 20.5363C18.3037 19.7026 18.1272 18.8089 18.1292 17.9068C18.1292 16.0732 18.8443 14.3475 20.1385 13.0493C21.4328 11.751 23.1545 11.0359 24.9881 11.0359C26.8216 11.0359 28.5393 11.751 29.8376 13.0493C30.4763 13.6864 30.9827 14.4436 31.3276 15.2772C31.6724 16.1109 31.8489 17.0046 31.8469 17.9068C31.8469 19.7403 31.1319 21.466 29.8376 22.7643C28.5393 24.0625 26.8176 24.7776 24.9881 24.7776ZM39.6804 34.2849H36.3249V30.9294C36.3249 30.7536 36.1811 30.6098 36.0053 30.6098H33.7683C33.5926 30.6098 33.4488 30.7536 33.4488 30.9294V34.2849H30.0932C29.9175 34.2849 29.7737 34.4287 29.7737 34.6044V36.8414C29.7737 37.0172 29.9175 37.161 30.0932 37.161H33.4488V40.5165C33.4488 40.6923 33.5926 40.8361 33.7683 40.8361H36.0053C36.1811 40.8361 36.3249 40.6923 36.3249 40.5165V37.161H39.6804C39.8562 37.161 40 37.0172 40 36.8414V34.6044C40 34.4287 39.8562 34.2849 39.6804 34.2849Z" fill="url(#paint1_linear)"/>
<defs>
<linearGradient id="paint0_linear" x1="25" y1="0" x2="25" y2="50" gradientUnits="userSpaceOnUse">
<stop stop-color="#D15FC0"/>
<stop offset="1" stop-color="#8C9CFF"/>
</linearGradient>
<linearGradient id="paint1_linear" x1="40" y1="6.75621" x2="6.11536" y2="24.3863" gradientUnits="userSpaceOnUse">
<stop stop-color="#FBFAFC"/>
<stop offset="1" stop-color="#EFDCF2"/>
</linearGradient>
</defs>
</svg>
