<svg width="29" height="30" viewBox="0 0 29 30" fill="none" xmlns="http://www.w3.org/2000/svg">
<path d="M27.5091 15.9617C28.0945 15.1882 28.4185 14.2404 28.4185 13.2544C28.4185 11.6899 27.5439 10.2091 26.1363 9.38329C25.7739 9.17073 25.3613 9.05886 24.9412 9.05925H16.5858L16.7948 4.77702C16.8436 3.74218 16.4777 2.7596 15.7669 2.01047C15.4181 1.64123 14.9973 1.34745 14.5304 1.14728C14.0636 0.947115 13.5606 0.844816 13.0527 0.846705C11.2408 0.846705 9.63802 2.06622 9.15719 3.81186L6.16415 14.6481H6.1537V29.561H22.6101C22.9307 29.561 23.2443 29.4983 23.5335 29.3728C25.192 28.6655 26.2617 27.0453 26.2617 25.2474C26.2617 24.8084 26.199 24.3763 26.0736 23.9582C26.6589 23.1847 26.983 22.2369 26.983 21.2509C26.983 20.8119 26.9203 20.3798 26.7948 19.9617C27.3802 19.1882 27.7042 18.2404 27.7042 17.2544C27.6973 16.8153 27.6345 16.3798 27.5091 15.9617ZM0.543945 15.7631V28.446C0.543945 29.0627 1.0422 29.561 1.65893 29.561H3.92374V14.6481H1.65893C1.0422 14.6481 0.543945 15.1464 0.543945 15.7631Z" fill="white"/>
</svg>
